<svg width="45" height="45" viewBox="0 0 45 45" fill="none" xmlns="http://www.w3.org/2000/svg">
<g clip-path="url(#clip0_1_3054)">
<path d="M39.2495 7.43872H5.03C4.38175 7.43872 3.76004 7.69605 3.30166 8.15409C2.84327 8.61213 2.58575 9.23337 2.58575 9.88114V34.3054C2.58575 34.9531 2.84327 35.5744 3.30166 36.0324C3.76004 36.4905 4.38175 36.7478 5.03 36.7478H39.2495C39.8977 36.7478 40.5195 36.4905 40.9778 36.0324C41.4362 35.5744 41.6937 34.9531 41.6937 34.3054V9.88114C41.6937 9.23337 41.4362 8.61213 40.9778 8.15409C40.5195 7.69605 39.8977 7.43872 39.2495 7.43872ZM37.3674 34.3054H7.05873L15.6136 25.4638L13.8537 23.7663L5.03 32.8888V11.7374L20.221 26.8438C20.679 27.2987 21.2985 27.554 21.9442 27.554C22.5899 27.554 23.2094 27.2987 23.6674 26.8438L39.2495 11.3588V32.73L30.2547 23.7419L28.5315 25.4638L37.3674 34.3054ZM6.63099 9.88114H37.2696L21.9442 25.1097L6.63099 9.88114Z" fill="url(#paint0_linear_1_3054)"/>
</g>
<defs>
<linearGradient id="paint0_linear_1_3054" x1="2.58575" y1="22.0933" x2="41.6937" y2="22.0933" gradientUnits="userSpaceOnUse">
<stop stop-color="#F9DED7"/>
<stop offset="0.473958" stop-color="#F6BED6"/>
<stop offset="1" stop-color="#DBE1F9"/>
</linearGradient>
<clipPath id="clip0_1_3054">
<rect width="43.9965" height="43.9636" fill="white" transform="translate(0.140686 0.112061)"/>
</clipPath>
</defs>
</svg>
