<svg width="60" height="60" viewBox="0 0 60 60" fill="none" xmlns="http://www.w3.org/2000/svg">
<path d="M23.4158 22.1892C19.115 22.1892 15.6053 25.699 15.6053 29.9998C15.6053 34.3006 19.115 37.8103 23.4158 37.8103C27.7166 37.8103 31.2264 34.3006 31.2264 29.9998C31.2264 25.699 27.7166 22.1892 23.4158 22.1892ZM46.8416 29.9998C46.8416 26.7654 46.8709 23.5603 46.6892 20.3318C46.5076 16.5818 45.6521 13.2537 42.9099 10.5115C40.1619 7.76346 36.8396 6.91385 33.0896 6.73221C29.8553 6.55057 26.6502 6.57987 23.4217 6.57987C20.1873 6.57987 16.9822 6.55057 13.7537 6.73221C10.0037 6.91385 6.67557 7.76932 3.93338 10.5115C1.18534 13.2596 0.335727 16.5818 0.154087 20.3318C-0.0275541 23.5662 0.00174284 26.7713 0.00174284 29.9998C0.00174284 33.2283 -0.0275541 36.4392 0.154087 39.6678C0.335727 43.4178 1.1912 46.7459 3.93338 49.4881C6.68143 52.2361 10.0037 53.0857 13.7537 53.2674C16.9881 53.449 20.1931 53.4197 23.4217 53.4197C26.656 53.4197 29.8611 53.449 33.0896 53.2674C36.8396 53.0857 40.1678 52.2303 42.9099 49.4881C45.658 46.74 46.5076 43.4178 46.6892 39.6678C46.8767 36.4392 46.8416 33.2342 46.8416 29.9998ZM23.4158 42.0174C16.7654 42.0174 11.3982 36.6502 11.3982 29.9998C11.3982 23.3494 16.7654 17.9822 23.4158 17.9822C30.0662 17.9822 35.4334 23.3494 35.4334 29.9998C35.4334 36.6502 30.0662 42.0174 23.4158 42.0174ZM35.9256 20.2967C34.3728 20.2967 33.1189 19.0428 33.1189 17.49C33.1189 15.9373 34.3728 14.6834 35.9256 14.6834C37.4783 14.6834 38.7322 15.9373 38.7322 17.49C38.7327 17.8587 38.6604 18.2239 38.5195 18.5646C38.3786 18.9054 38.1719 19.2149 37.9112 19.4757C37.6505 19.7364 37.3409 19.9431 37.0002 20.084C36.6595 20.2248 36.2943 20.2971 35.9256 20.2967Z" fill="url(#paint0_linear_1_3825)"/>
<defs>
<linearGradient id="paint0_linear_1_3825" x1="1.74508e-07" y1="29.9998" x2="46.8442" y2="29.9998" gradientUnits="userSpaceOnUse">
<stop stop-color="#F9DED7"/>
<stop offset="0.473958" stop-color="#F6BED6"/>
<stop offset="1" stop-color="#DBE1F9"/>
</linearGradient>
</defs>
</svg>
