<svg width="45" height="45" viewBox="0 0 45 45" fill="none" xmlns="http://www.w3.org/2000/svg">
<path d="M32.8189 3.76782C33.8641 3.76769 34.8703 4.16404 35.6343 4.87675C36.3982 5.58946 36.8629 6.56539 36.9344 7.60731L36.9436 7.88941V36.2789C36.9437 37.3233 36.5471 38.3288 35.8338 39.0921C35.1206 39.8555 34.1439 40.3199 33.1012 40.3914L32.8189 40.4005H11.7373C10.6921 40.4006 9.68591 40.0043 8.92196 39.2916C8.15801 38.5789 7.69331 37.6029 7.62178 36.561L7.61261 36.2789V7.88941C7.61248 6.84504 8.00912 5.83957 8.72237 5.07619C9.43561 4.31281 10.4123 3.84846 11.455 3.77698L11.7373 3.76782H32.8189ZM32.8189 6.51555H11.7373C11.405 6.51556 11.084 6.63579 10.8336 6.85401C10.5833 7.07222 10.4204 7.37366 10.3752 7.70257L10.3624 7.88941V36.2789C10.3624 36.975 10.8793 37.5502 11.5503 37.64L11.7373 37.6528H32.8189C33.1512 37.6528 33.4722 37.5325 33.7226 37.3143C33.973 37.0961 34.1358 36.7947 34.181 36.4658L34.1938 36.2789V7.88941C34.1938 7.55742 34.0735 7.23666 33.8551 6.98645C33.6367 6.73625 33.3351 6.57352 33.0059 6.52837L32.8189 6.51555ZM24.1553 29.4572C23.7953 29.4 23.4728 29.2024 23.2586 28.9076C23.0445 28.6129 22.9562 28.2453 23.0132 27.8855L23.2039 26.6765H20.4907L20.2304 28.316C20.1654 28.6685 19.965 28.9816 19.6722 29.1885C19.3793 29.3954 19.0171 29.4798 18.6629 29.4236C18.3087 29.3675 17.9904 29.1752 17.776 28.8878C17.5617 28.6005 17.4682 28.2408 17.5155 27.8855L17.7061 26.6765H16.3312C15.9666 26.6765 15.6169 26.5318 15.3591 26.2741C15.1012 26.0165 14.9564 25.667 14.9564 25.3027C14.9564 24.9383 15.1012 24.5889 15.3591 24.3312C15.6169 24.0736 15.9666 23.9288 16.3312 23.9288H18.1424L18.5769 21.1811H17.246C16.8814 21.1811 16.5317 21.0363 16.2738 20.7787C16.016 20.521 15.8711 20.1716 15.8711 19.8072C15.8711 19.4428 16.016 19.0934 16.2738 18.8358C16.5317 18.5781 16.8814 18.4334 17.246 18.4334H19.0114L19.378 16.1253C19.399 15.9409 19.4571 15.7628 19.5489 15.6015C19.6407 15.4402 19.7642 15.2992 19.912 15.1869C20.0598 15.0747 20.2288 14.9935 20.4089 14.9483C20.589 14.903 20.7763 14.8947 20.9597 14.9238C21.143 14.9529 21.3186 15.0188 21.4758 15.1175C21.633 15.2163 21.7685 15.3458 21.8742 15.4983C21.98 15.6508 22.0537 15.8231 22.091 16.0048C22.1282 16.1866 22.1283 16.374 22.0911 16.5557L21.796 18.4297H24.5128L24.8794 16.1234C24.9004 15.9391 24.9585 15.7609 25.0503 15.5997C25.1421 15.4384 25.2656 15.2974 25.4134 15.1851C25.5612 15.0728 25.7302 14.9916 25.9103 14.9464C26.0904 14.9012 26.2777 14.8929 26.4611 14.922C26.6444 14.9511 26.82 15.017 26.9772 15.1157C27.1344 15.2144 27.2699 15.344 27.3756 15.4965C27.4814 15.6489 27.5551 15.8213 27.5924 16.003C27.6296 16.1847 27.6297 16.3721 27.5925 16.5539L27.2955 18.4297H28.2488C28.6134 18.4297 28.9631 18.5744 29.221 18.8321C29.4788 19.0897 29.6237 19.4392 29.6237 19.8036C29.6237 20.1679 29.4788 20.5174 29.221 20.775C28.9631 21.0327 28.6134 21.1774 28.2488 21.1774H26.8611L26.4266 23.9251H27.3304C27.695 23.9251 28.0447 24.0699 28.3026 24.3275C28.5604 24.5852 28.7053 24.9346 28.7053 25.299C28.7053 25.6634 28.5604 26.0128 28.3026 26.2705C28.0447 26.5281 27.695 26.6729 27.3304 26.6729H25.9903L25.73 28.3142C25.6728 28.6739 25.4749 28.9962 25.18 29.2102C24.885 29.4242 24.5171 29.5124 24.1571 29.4554L24.1553 29.4572ZM21.3597 21.1774L20.9252 23.9251H23.6383L24.0746 21.1774H21.3597Z" fill="url(#paint0_linear_1_3047)"/>
<defs>
<linearGradient id="paint0_linear_1_3047" x1="7.61261" y1="22.0842" x2="36.9436" y2="22.0842" gradientUnits="userSpaceOnUse">
<stop stop-color="#F9DED7"/>
<stop offset="0.473958" stop-color="#F6BED6"/>
<stop offset="1" stop-color="#DBE1F9"/>
</linearGradient>
</defs>
</svg>
