<svg xmlns="http://www.w3.org/2000/svg" width="512" height="512"><g fill="#262626" fill-rule="evenodd" clip-rule="evenodd"><path d="M425.614 86.346c-43.309-43.446-103.361-70.28-169.652-70.28-66.16 0-126.207 26.834-169.652 70.279-43.445 43.442-70.282 103.359-70.282 169.652 0 66.292 26.836 126.211 70.282 169.654 43.445 43.447 103.492 70.281 169.652 70.281 66.291 0 126.342-26.834 169.652-70.281 43.443-43.443 70.282-103.362 70.282-169.654s-26.838-126.209-70.282-169.651zm-13.149 326.019c-40.126 40.126-95.389 64.835-156.502 64.835-60.979 0-116.379-24.709-156.365-64.835-39.993-39.984-64.835-95.252-64.835-156.367 0-61.111 24.842-116.377 64.835-156.365C139.583 59.509 194.983 34.8 255.962 34.8c61.114 0 116.376 24.709 156.502 64.833 39.988 39.988 64.698 95.254 64.698 156.365.001 61.115-24.709 116.383-64.697 156.367z"/><path d="M261.809 133.643c-68.815 0-103.757 47.694-103.757 87.683 0 7.438.797 14.614 2.657 21.123 4.119 15.012 13.02 27.102 27.104 32.685 3.319 1.458 6.374 0 7.171-3.454.8-2.526 2.255-8.64 3.057-11.295 1.063-3.589.663-4.781-1.994-7.838-3.452-4.121-6.376-8.771-7.969-14.616-1.064-3.853-1.729-8.104-1.729-13.018 0-35.473 27.499-67.359 71.609-67.359 38.924 0 60.449 22.984 60.449 53.808 0 9.17-.933 17.804-2.66 26.039-6.108 28.299-22.05 48.759-43.442 48.759-15.145 0-26.704-12.095-22.982-27.106 2.127-8.363 5.179-17.136 7.838-25.639 2.79-8.903 5.18-17.536 5.18-24.178 0-11.692-6.376-21.123-19.791-21.123-15.549 0-28.034 15.677-28.034 36.397 0 3.856.393 7.576.927 10.363 1.462 7.442 3.722 11.959 3.722 11.959s-15.941 65.232-18.601 76.66c-5.579 22.846-.797 50.611-.396 53.403.133 1.59 2.388 1.992 3.455.795 1.459-1.854 19.923-23.782 26.302-45.965 1.594-6.378 10.232-38.791 10.232-38.791 4.917 9.435 19.661 17.668 35.469 17.668 37.859 0 66.028-27.501 75.193-67.489 2.125-9.036 3.189-18.868 3.189-28.961 0-41.851-36.534-80.51-92.199-80.51z"/></g></svg>