<svg width="96" height="96" viewBox="0 0 96 96" fill="none" xmlns="http://www.w3.org/2000/svg">
<path d="M90 47.7374C90 47.5312 90 47.2968 89.9906 47.0249C89.9813 46.2655 89.9625 45.4124 89.9438 44.503C89.8688 41.8874 89.7375 39.2812 89.5312 36.8249C89.25 33.4405 88.8375 30.6187 88.275 28.4999C87.6814 26.2888 86.5179 24.2722 84.9007 22.6517C83.2835 21.0313 81.2693 19.8636 79.0594 19.2655C76.4062 18.553 71.2125 18.1124 63.9 17.8405C60.4219 17.7093 56.7 17.6249 52.9781 17.578C51.675 17.5593 50.4656 17.5499 49.3781 17.5405H46.6219C45.5344 17.5499 44.325 17.5593 43.0219 17.578C39.3 17.6249 35.5781 17.7093 32.1 17.8405C24.7875 18.1218 19.5844 18.5624 16.9406 19.2655C14.73 19.8621 12.715 21.0293 11.0976 22.65C9.48018 24.2707 8.31713 26.2881 7.725 28.4999C7.15313 30.6187 6.75 33.4405 6.46875 36.8249C6.2625 39.2812 6.13125 41.8874 6.05625 44.503C6.02812 45.4124 6.01875 46.2655 6.00937 47.0249C6.00937 47.2968 6 47.5312 6 47.7374V48.2624C6 48.4687 6 48.703 6.00937 48.9749C6.01875 49.7343 6.0375 50.5874 6.05625 51.4968C6.13125 54.1124 6.2625 56.7187 6.46875 59.1749C6.75 62.5593 7.1625 65.3812 7.725 67.4999C8.925 71.9905 12.45 75.5343 16.9406 76.7343C19.5844 77.4468 24.7875 77.8874 32.1 78.1593C35.5781 78.2905 39.3 78.3749 43.0219 78.4218C44.325 78.4405 45.5344 78.4499 46.6219 78.4593H49.3781C50.4656 78.4499 51.675 78.4405 52.9781 78.4218C56.7 78.3749 60.4219 78.2905 63.9 78.1593C71.2125 77.878 76.4156 77.4374 79.0594 76.7343C83.55 75.5343 87.075 71.9999 88.275 67.4999C88.8469 65.3812 89.25 62.5593 89.5312 59.1749C89.7375 56.7187 89.8688 54.1124 89.9438 51.4968C89.9719 50.5874 89.9813 49.7343 89.9906 48.9749C89.9906 48.703 90 48.4687 90 48.2624V47.7374ZM83.25 48.2249C83.25 48.4218 83.25 48.6374 83.2406 48.8905C83.2313 49.6218 83.2125 50.428 83.1938 51.2999C83.1281 53.7937 82.9969 56.2874 82.8 58.603C82.5469 61.6218 82.1906 64.0968 81.75 65.7562C81.1687 67.9218 79.4625 69.6374 77.3062 70.2093C75.3375 70.7343 70.3781 71.1562 63.6375 71.4093C60.225 71.5405 56.55 71.6249 52.8844 71.6718C51.6 71.6905 50.4094 71.6999 49.3406 71.6999H46.6594L43.1156 71.6718C39.45 71.6249 35.7844 71.5405 32.3625 71.4093C25.6219 71.1468 20.6531 70.7343 18.6937 70.2093C16.5375 69.628 14.8313 67.9218 14.25 65.7562C13.8094 64.0968 13.4531 61.6218 13.2 58.603C13.0031 56.2874 12.8813 53.7937 12.8063 51.2999C12.7781 50.428 12.7688 49.6124 12.7594 48.8905C12.7594 48.6374 12.75 48.4124 12.75 48.2249V47.7749C12.75 47.578 12.75 47.3624 12.7594 47.1093C12.7688 46.378 12.7875 45.5718 12.8063 44.6999C12.8719 42.2062 13.0031 39.7124 13.2 37.3968C13.4531 34.378 13.8094 31.903 14.25 30.2437C14.8313 28.078 16.5375 26.3624 18.6937 25.7905C20.6625 25.2655 25.6219 24.8437 32.3625 24.5905C35.775 24.4593 39.45 24.3749 43.1156 24.328C44.4 24.3093 45.5906 24.2999 46.6594 24.2999H49.3406L52.8844 24.328C56.55 24.3749 60.2156 24.4593 63.6375 24.5905C70.3781 24.853 75.3469 25.2655 77.3062 25.7905C79.4625 26.3718 81.1687 28.078 81.75 30.2437C82.1906 31.903 82.5469 34.378 82.8 37.3968C82.9969 39.7124 83.1188 42.2062 83.1938 44.6999C83.2219 45.5718 83.2313 46.3874 83.2406 47.1093C83.2406 47.3624 83.25 47.5874 83.25 47.7749V48.2249ZM39.6562 60.5624L61.4062 47.9062L39.6562 35.4374V60.5624Z" fill="white"/>
</svg>
